# xmcd
#
# Track frame offsets: 
#        150
#        25378
#        41773
#        58683
#        77474
#        92566
#        107136
#        128811
#        146968
#        169437
#        189754
#        212968
#        234580
#        253712
#        277971
#
# Disc length: 3834 seconds
#
# Revision: 0
# Processed by: cddbd v1.5.2PL0 Copyright (c) Steve Scherf et al.
# Submitted via: ExactAudioCopy v1.0b3
#
DISCID=d70ef80f
DTITLE=Sixteen Horsepower Live - Sixteen Horsepower
DYEAR=1900
DGENRE=Country
TTITLE0=Sixteen Horsepower - Splinters
TTITLE1=Sixteen Horsepower - Nobody `Cept You
TTITLE2=Sixteen Horsepower - New Banjo
TTITLE3=Sixteen Horsepower - Harms Way
TTITLE4=Sixteen Horsepower - Clogger
TTITLE5=Sixteen Horsepower - Scrawled in Sap
TTITLE6=Sixteen Horsepower - American Wheeze
TTITLE7=Sixteen Horsepower - Burning Bush
TTITLE8=Sixteen Horsepower - Black Lung
TTITLE9=Sixteen Horsepower - Low Estate
TTITLE10=Sixteen Horsepower - Cinder Alley
TTITLE11=Sixteen Horsepower - Haw
TTITLE12=Sixteen Horsepower - Heel On The Shovel
TTITLE13=Sixteen Horsepower - Poor Mouth
TTITLE14=Sixteen Horsepower - Straight Mouth Stomp
EXTD=
EXTT0=
EXTT1=
EXTT2=
EXTT3=
EXTT4=
EXTT5=
EXTT6=
EXTT7=
EXTT8=
EXTT9=
EXTT10=
EXTT11=
EXTT12=
EXTT13=
EXTT14=
PLAYORDER=
